<svg id="Livello_1" data-name="Livello 1" xmlns="http://www.w3.org/2000/svg" viewBox="0 0 2227.32 2222.06"><defs><style>.cls-1{fill:#1d1d1b;}.cls-2{fill:#41b288;}</style></defs><path class="cls-1" d="M1297.07,1265c90.65-288.6,371.13-469.91,651.8-459.28,395.31,15,611.73,334,641.22,588.64,33.09,285.72-144.07,594.14-403.87,685.42,8.53-56.35,20.34-110.75,17-166.15-1.4-23.21,15.07-33,29.89-42.45,194.23-124.53,261.39-411.25,154.59-622.6-125.92-249.17-407.88-354.37-665.32-245.72-72.25,30.49-138.18,75.67-183.62,139.83-32.57,46-73.48,69.25-123.88,84.25C1378.23,1237.87,1342.08,1250.41,1297.07,1265Z" transform="translate(-366.74 -353.73)"/><path class="cls-1" d="M2096.72,756.05c-56-6.06-107.24-13.1-158.68-16.48-22.81-1.5-32-16.61-42.81-30.8C1703.57,457.86,1324.84,432.44,1109.68,676c-174.48,197.52-164.33,444.92-48.75,616.65,21.07,31.32,31,49.15-15.16,64.93-37.24,12.74-50.6,50.68-63.14,86.22C823.17,1282.48,777.72,988.87,875.25,756.5c104.07-247.94,345-404.85,619.19-402.75C1772.73,355.88,2008.8,528.27,2096.72,756.05Z" transform="translate(-366.74 -353.73)"/><path class="cls-1" d="M653.07,1115.33C542.94,1251.45,496.28,1404,538.52,1577.21c68.4,280.6,345.51,446.57,637.62,373.08,43.35,18.79,87.48,36,129.7,57.07,19,9.49,0,15.43-6.82,21.35a15.57,15.57,0,0,0-1.73-3.81c-.52-.63-1.85-.58-2.82-.84l4.72,4.48q.09,17.06.17,34.1l.4-.26-11.46,7.27c-313.42,134.25-709.39,5.61-860-343.41-103.68-240.25-77.79-471.76,88.64-680.9C557.9,1077.25,598.38,1110.12,653.07,1115.33Z" transform="translate(-366.74 -353.73)"/><path class="cls-1" d="M1692.19,1198.71c42.23.87,60,29,46,71.57-30.66,93.09-63.48,185.48-95.21,278.23C1610.63,1643,1579.43,1738,1545.76,1832c-9.42,26.3-14.33,61.22-54.33,61-39.37-.17-44.56-32.52-54.17-60.45-56.32-163.6-168.3-270.85-331.21-326.16-54-18.34-68.26-44.11-45.46-83.59,4.52-7.81,7.07-15.92,18-18.72,196.66-50.37,382.45-133.26,576-193.1C1668.59,1206.72,1682.48,1201.9,1692.19,1198.71Z" transform="translate(-366.74 -353.73)"/><path class="cls-1" d="M1643.53,2395.68c160.87-68,272.82-181.19,322.56-351,56.2-191.82-11.49-406.72-175.46-531.71-45.36-34.58-49.3-62.59-31-110.17,33.36-86.81,31.26-87.61,105.61-32,271.84,203.16,353.36,562.42,191.09,858.55-62.25,113.58-146.6,208.65-267.37,265.06C1748.38,2449.82,1678.11,2449,1643.53,2395.68Z" transform="translate(-366.74 -353.73)"/><path class="cls-1" d="M1643.53,2395.68c34.58,53.36,104.85,54.14,145.42,98.68-354.12,197-786.57,15.75-921.51-320.68,56.16,4.5,110.8,8.38,165.28,13.78,8,.79,18.07,7,22.31,13.77,45.14,71.95,111.48,126.53,180.35,167,50.87,29.92,117.95,45.93,182.82,50.52C1495,2424.22,1569.74,2416.25,1643.53,2395.68Z" transform="translate(-366.74 -353.73)"/><path class="cls-1" d="M653.07,1115.33c-54.69-5.21-95.17-38.08-136.15-70,0,0,0,1.63,0,1.63l0,0c14.18-15.77,24.52-27.92,25.74-29.35C595.92,955,650,912.79,650,912.79c26.55-20.73,66.94-47.82,123.21-70.72-1.44,30.81-3.55,55.49-5.29,72.89-3.36,33.71-5,36.79-6.89,64.34-.84,12.25-.8,15.91-2.48,22.54-5.62,22.27-20,36.42-31.22,47.16C701.2,1074,676.12,1096.12,653.07,1115.33Z" transform="translate(-366.74 -353.73)"/><path class="cls-1" d="M1299.36,2062.64q-.09-17.05-.17-34.1l-.17.17c6.77-5.92,25.85-11.86,6.82-21.35-42.22-21-86.35-38.28-129.7-57.07,72-20.14,133.25-60.41,194.78-107.83,18,50.65,36.71,97.34,97.21,113.25C1419.42,2009.79,1362.53,2041,1299.36,2062.64Z" transform="translate(-366.74 -353.73)"/><path class="cls-2" d="M1288.3,2069.65l11.46-7.27Z" transform="translate(-366.74 -353.73)"/><path class="cls-2" d="M1299.19,2028.54l-4.72-4.48c1,.26,2.3.21,2.82.84a15.57,15.57,0,0,1,1.73,3.81Z" transform="translate(-366.74 -353.73)"/></svg>